<svg viewBox="0 0 20 20" version="1.1" xmlns="http://www.w3.org/2000/svg" fill="rgb(255,187,68)" stroke="rgb(255,187,68)">
    <path d="M3,1L17,1C18.097,1 19,1.903 19,3L19,17C19,18.097 18.097,19 17,19L3,19C1.903,19 1,18.097 1,17L1,3C1,1.903 1.903,1 3,1" fill="none" stroke-width="0.5" />
    <path d="M5.3,12.42L7.5,12.42L7.5,14.4C7.54,14.413 7.58,14.427 7.62,14.44C7.927,14.573 8.263,14.683 8.63,14.77C8.997,14.857 9.387,14.9 9.8,14.9C10.547,14.9 11.127,14.75 11.54,14.45C11.953,14.15 12.16,13.747 12.16,13.24C12.16,12.787 11.99,12.42 11.65,12.14C11.31,11.86 10.89,11.613 10.39,11.4C9.89,11.187 9.343,10.973 8.75,10.76C8.157,10.547 7.61,10.277 7.11,9.95C6.61,9.623 6.19,9.213 5.85,8.72C5.51,8.227 5.34,7.587 5.34,6.8C5.34,6.2 5.457,5.65 5.69,5.15C5.923,4.65 6.25,4.22 6.67,3.86C7.09,3.5 7.593,3.22 8.18,3.02C8.767,2.82 9.42,2.72 10.14,2.72C10.953,2.72 11.753,2.793 12.54,2.94C13.327,3.087 13.953,3.287 14.42,3.54L14.42,7.6L12.22,7.6L12.22,5.38C12.18,5.38 12.14,5.373 12.1,5.36C11.807,5.28 11.49,5.217 11.15,5.17C10.81,5.123 10.473,5.1 10.14,5.1C9.5,5.1 8.997,5.227 8.63,5.48C8.263,5.733 8.08,6.073 8.08,6.5C8.08,6.94 8.25,7.3 8.59,7.58C8.93,7.86 9.35,8.113 9.85,8.34C10.35,8.567 10.897,8.793 11.49,9.02C12.083,9.247 12.63,9.523 13.13,9.85C13.63,10.177 14.05,10.587 14.39,11.08C14.73,11.573 14.9,12.193 14.9,12.94C14.9,13.66 14.767,14.29 14.5,14.83C14.233,15.37 13.86,15.823 13.38,16.19C12.9,16.557 12.333,16.83 11.68,17.01C11.027,17.19 10.32,17.28 9.56,17.28C9.053,17.28 8.583,17.24 8.15,17.16C7.717,17.08 7.317,16.98 6.95,16.86C6.583,16.74 6.26,16.613 5.98,16.48C5.7,16.347 5.473,16.233 5.3,16.14L5.3,12.42Z" stroke="none" />
</svg>
